<svg width="368" height="368" viewBox="0 0 368 368" fill="none" xmlns="http://www.w3.org/2000/svg">
<mask id="mask0_3521_5915" style="mask-type:alpha" maskUnits="userSpaceOnUse" x="39" y="39" width="289" height="290">
<path fill-rule="evenodd" clip-rule="evenodd" d="M183.5 328C263.305 328 328 263.305 328 183.5C328 103.695 263.305 39.0001 183.5 39.0001C103.695 39.0001 39 103.695 39 183.5C39 263.305 103.695 328 183.5 328ZM183.5 290C242.318 290 290 242.318 290 183.5C290 124.682 242.318 77.0001 183.5 77.0001C124.682 77.0002 77 124.682 77.0001 183.5C77.0001 242.318 124.682 290 183.5 290Z" fill="#D9D9D9"/>
</mask>
<g mask="url(#mask0_3521_5915)">
<path d="M112 306.5L182.5 184.391" stroke="#1477FF" stroke-width="2" stroke-linecap="round"/>
<path d="M61.0002 254.5L183.11 184" stroke="#1477FF" stroke-width="2" stroke-linecap="round"/>
<path d="M42 184H183" stroke="#1477FF" stroke-width="2" stroke-linecap="round"/>
<path d="M47 148L183.196 184.494" stroke="#1477FF" stroke-width="2" stroke-linecap="round"/>
<path d="M61 113L183.11 183.5" stroke="#1477FF" stroke-width="2" stroke-linecap="round"/>
<path d="M83 84.0001L182.702 183.702" stroke="#1477FF" stroke-width="2" stroke-linecap="round"/>
<path d="M113 62.0001L183.5 184.11" stroke="#1477FF" stroke-width="2" stroke-linecap="round"/>
<path d="M147 48.0001L183.493 184.196" stroke="#1477FF" stroke-width="2" stroke-linecap="round"/>
<path d="M183 43.0001L183 184" stroke="#1477FF" stroke-width="2" stroke-linecap="round"/>
</g>
<path d="M183 185L183 184.877" stroke="#1477FF" stroke-width="24" stroke-linecap="round" stroke-linejoin="round"/>
<path d="M294 184L294 183.877" stroke="#1477FF" stroke-width="16" stroke-linecap="round" stroke-linejoin="round"/>
<path d="M238.5 280.2L238.5 280.077" stroke="#1477FF" stroke-width="16" stroke-linecap="round" stroke-linejoin="round"/>
<path d="M238.5 87.8001L238.5 87.6767" stroke="#1477FF" stroke-width="16" stroke-linecap="round" stroke-linejoin="round"/>
<path d="M279.2 128.5L279.2 128.377" stroke="#1477FF" stroke-width="16" stroke-linecap="round" stroke-linejoin="round"/>
<path d="M279.2 239.5L279.2 239.377" stroke="#1477FF" stroke-width="16" stroke-linecap="round" stroke-linejoin="round"/>
<path d="M183 73.0001C153.561 73.0001 125.328 84.6948 104.511 105.511C83.6946 126.328 72 154.561 72 184C72 213.439 83.6946 241.672 104.511 262.489C125.328 283.306 153.561 295 183 295" stroke="#1477FF" stroke-width="16" stroke-linecap="round" stroke-linejoin="round"/>
<path d="M117.158 69.6847C86.8393 87.189 64.7163 116.02 55.6554 149.836C46.5945 183.652 51.3379 219.682 68.8422 250C86.3465 280.318 115.178 302.441 148.993 311.502C182.809 320.563 218.839 315.82 249.158 298.315" stroke="#1477FF" stroke-width="8" stroke-linecap="round" stroke-linejoin="round"/>
<path d="M183 36.0001C153.728 36.0001 125.114 44.6801 100.776 60.9425C76.4372 77.205 57.4677 100.319 46.2659 127.363C35.0641 154.406 32.1332 184.164 37.8439 212.873C43.5545 241.583 57.6501 267.954 78.3483 288.652C99.0464 309.35 125.418 323.446 154.127 329.156C182.836 334.867 212.594 331.936 239.637 320.734C266.681 309.532 289.795 290.563 306.057 266.224C322.32 241.886 331 213.272 331 184" stroke="#1477FF" stroke-width="2" stroke-linecap="round" stroke-linejoin="round"/>
<path d="M183.314 336L178 267.5L180.485 233.5L181.192 199.5L181.192 178.121L185.435 178.121L185.435 199.5L186.142 233.5L190 267.5L183.314 336Z" stroke="#1477FF" stroke-width="4" stroke-linecap="round" stroke-linejoin="round"/>
<path d="M187.556 206.243L179.071 206.243" stroke="#1477FF" stroke-width="4" stroke-linecap="round" stroke-linejoin="round"/>
<path d="M174 212H193" stroke="#1477FF" stroke-width="6" stroke-linecap="round"/>
<path d="M184 329L184 257" stroke="#1477FF" stroke-linecap="round"/>
<path d="M173.622 181.488C174.136 182.002 174.446 182.686 174.494 183.411L174.501 183.61L174.501 185.265C174.502 186.027 174.212 186.761 173.692 187.317C173.171 187.873 172.459 188.211 171.698 188.261L171.5 188.266L169.087 188.267L169.086 191.509C169.086 191.753 168.998 191.988 168.837 192.17C168.675 192.353 168.453 192.471 168.212 192.501L168.087 192.509L152.996 192.509C152.742 192.509 152.498 192.411 152.313 192.237C152.128 192.063 152.016 191.825 152 191.572C151.984 191.318 152.065 191.068 152.227 190.872C152.389 190.676 152.619 190.549 152.871 190.517L152.996 190.509L167.086 190.509L167.085 188.266L135.501 188.266C134.567 188.266 95.6999 187.924 95 187.305L94 187.146C93.5234 186.669 86.6732 186.079 86.5 185.439L85 185.438C84.7459 185.438 84 184.992 83.8149 184.818C83.6299 184.644 81.0173 184.501 81.0014 184.247C80.9855 183.994 83.8382 183.993 84 183.797C84.1618 183.602 84.748 183.534 85 183.502L85.5 183.438L86.5 183.437C86.7095 182.664 94.3789 181.976 95 181.47C95.6211 180.964 134.702 180.666 135.501 180.617L156.53 180.61L171.5 180.61C172.228 180.61 172.93 180.873 173.478 181.352L173.622 181.488ZM172.208 182.902C172.052 182.747 171.85 182.647 171.632 182.618L171.5 182.61L169.086 182.61L169.087 186.266L171.5 186.267C171.72 186.267 171.934 186.194 172.109 186.06L172.208 185.975C172.364 185.819 172.464 185.616 172.493 185.398L172.501 185.266L172.501 183.61C172.501 183.479 172.475 183.348 172.425 183.227C172.374 183.106 172.301 182.995 172.208 182.902Z" fill="#1477FF"/>
<g clip-path="url(#clip0_3521_5915)">
<path d="M183.11 331.802C191.351 331.862 197.999 338.56 197.999 346.802C197.999 355.043 191.351 361.741 183.11 361.802C174.869 361.862 168.122 355.262 168 347.023V346.58C168.122 338.341 174.869 331.741 183.11 331.802ZM179.561 341.44C179.279 341.158 178.898 341 178.5 341C178.102 341 177.721 341.158 177.44 341.44L177.315 341.581C177.091 341.869 176.98 342.23 177.003 342.594C177.026 342.959 177.181 343.302 177.44 343.561L180.878 347L177.44 350.44C177.166 350.722 177.015 351.101 177.018 351.495C177.022 351.888 177.18 352.264 177.458 352.542C177.736 352.82 178.112 352.978 178.505 352.982C178.899 352.985 179.278 352.834 179.561 352.561L184.061 348.061C184.342 347.779 184.5 347.398 184.5 347C184.5 346.602 184.342 346.221 184.061 345.94L179.561 341.44ZM185.561 341.44C185.279 341.158 184.898 341 184.5 341C184.102 341 183.721 341.158 183.44 341.44L183.315 341.581C183.091 341.869 182.98 342.23 183.003 342.594C183.026 342.959 183.181 343.302 183.44 343.561L186.878 347L183.44 350.44C183.166 350.722 183.015 351.101 183.018 351.495C183.022 351.888 183.18 352.264 183.458 352.542C183.736 352.82 184.112 352.978 184.505 352.982C184.899 352.985 185.278 352.834 185.561 352.561L190.061 348.061C190.342 347.779 190.5 347.398 190.5 347C190.5 346.602 190.342 346.221 190.061 345.94L185.561 341.44Z" fill="#1477FF"/>
</g>
<g clip-path="url(#clip1_3521_5915)">
<path d="M21 169C29.2845 169 36 175.716 36 184C36 187.978 34.4196 191.794 31.6066 194.607C28.7936 197.42 24.9782 199 21 199C17.0218 199 13.2064 197.42 10.3934 194.607C7.58035 191.794 6 187.978 6 184C6 175.716 12.7155 169 21 169ZM24 176.5C22.8973 176.5 21.8329 176.905 21.0089 177.637C20.1849 178.37 19.6586 179.38 19.53 180.475L19.5075 180.736L19.5 181L19.5075 181.264C19.536 181.743 19.638 182.2 19.803 182.626L19.938 182.94L14.688 188.19L14.565 188.331C14.3609 188.594 14.2501 188.917 14.2501 189.25C14.2501 189.583 14.3609 189.907 14.565 190.17L14.6895 190.311L16.9395 192.561L17.0805 192.685C17.3436 192.889 17.667 193 18 193C18.333 193 18.6564 192.889 18.9195 192.685L19.0605 192.561L19.185 192.42C19.3891 192.157 19.4999 191.833 19.4999 191.5C19.4999 191.167 19.3891 190.844 19.185 190.581L19.0605 190.44L17.8725 189.25L18.75 188.373L19.9395 189.561L20.0805 189.685C20.3691 189.909 20.7294 190.02 21.0939 189.997C21.4583 189.974 21.8019 189.818 22.0601 189.56C22.3183 189.302 22.4735 188.958 22.4965 188.594C22.5195 188.23 22.4087 187.869 22.185 187.581L22.0605 187.44L20.8725 186.25L22.0605 185.062C22.6699 185.353 23.337 185.502 24.0121 185.5C24.6873 185.498 25.3533 185.344 25.9608 185.049C26.5683 184.754 27.1017 184.327 27.5215 183.798C27.9412 183.269 28.2367 182.653 28.3858 181.994C28.535 181.336 28.5341 180.652 28.3831 179.994C28.2322 179.336 27.9351 178.72 27.5139 178.193C27.0927 177.665 26.5581 177.239 25.9499 176.946C25.3416 176.653 24.6752 176.501 24 176.5ZM24 179.5C24.3978 179.5 24.7794 179.658 25.0607 179.939C25.342 180.221 25.5 180.602 25.5 181C25.5 181.398 25.342 181.779 25.0607 182.061C24.7794 182.342 24.3978 182.5 24 182.5C23.6022 182.5 23.2206 182.342 22.9393 182.061C22.658 181.779 22.5 181.398 22.5 181C22.5 180.602 22.658 180.221 22.9393 179.939C23.2206 179.658 23.6022 179.5 24 179.5Z" fill="#1477FF"/>
</g>
<g clip-path="url(#clip2_3521_5915)">
<path d="M183 7.00006C191.284 7.00006 198 13.7156 198 22.0001C198 30.2846 191.284 37.0001 183 37.0001C174.715 37.0001 168 30.2846 168 22.0001C168 13.7156 174.715 7.00006 183 7.00006ZM183 14.5001C181.807 14.5001 180.662 14.9742 179.818 15.8181C178.974 16.662 178.5 17.8066 178.5 19.0001V25.0001C178.5 26.1935 178.974 27.3381 179.818 28.182C180.662 29.026 181.807 29.5001 183 29.5001C184.193 29.5001 185.338 29.026 186.182 28.182C187.026 27.3381 187.5 26.1935 187.5 25.0001C187.5 24.6177 187.353 24.25 187.091 23.972C186.828 23.694 186.47 23.5267 186.088 23.5043C185.706 23.4819 185.33 23.6061 185.037 23.8515C184.744 24.0968 184.556 24.4449 184.51 24.8246L184.5 25.0001C184.5 25.3979 184.342 25.7794 184.061 26.0607C183.779 26.342 183.398 26.5001 183 26.5001C182.602 26.5001 182.221 26.342 181.939 26.0607C181.658 25.7794 181.5 25.3979 181.5 25.0001V19.0001C181.5 18.6177 181.647 18.25 181.909 17.972C182.172 17.694 182.53 17.5267 182.912 17.5043C183.294 17.4819 183.67 17.6061 183.963 17.8515C184.256 18.0968 184.444 18.4449 184.489 18.8246L184.5 19.0001C184.5 19.3979 184.658 19.7794 184.939 20.0607C185.221 20.342 185.602 20.5001 186 20.5001C186.398 20.5001 186.779 20.342 187.061 20.0607C187.342 19.7794 187.5 19.3979 187.5 19.0001C187.5 17.8066 187.026 16.662 186.182 15.8181C185.338 14.9742 184.193 14.5001 183 14.5001Z" fill="#1477FF"/>
</g>
<defs>
<clipPath id="clip0_3521_5915">
<rect width="36" height="36" fill="white" transform="translate(165 329)"/>
</clipPath>
<clipPath id="clip1_3521_5915">
<rect width="36" height="36" fill="white" transform="translate(3 166)"/>
</clipPath>
<clipPath id="clip2_3521_5915">
<rect width="36" height="36" fill="white" transform="translate(165 4.00006)"/>
</clipPath>
</defs>
</svg>
