<svg width="14" height="16" viewBox="0 0 14 16" fill="none" xmlns="http://www.w3.org/2000/svg">
<path d="M0.392 1.456H1.704V3.568H5.784V1.456H7.096V7.84H0.392V1.456ZM1.704 4.592V6.768H5.784V4.592H1.704ZM9.704 0.768H11.032V8.48H9.704V0.768ZM10.44 3.952H13.16V5.056H10.44V3.952ZM1.272 14.064H2.136C2.712 14.064 3.21867 14.0587 3.656 14.048C4.104 14.048 4.50933 14.0373 4.872 14.016C5.23467 13.9947 5.58133 13.9627 5.912 13.92C6.24267 13.8773 6.57333 13.8187 6.904 13.744L7.048 14.752C6.696 14.816 6.34933 14.8693 6.008 14.912C5.66667 14.9653 5.30933 15.0027 4.936 15.024C4.57333 15.0453 4.16267 15.0613 3.704 15.072C3.24533 15.0827 2.72267 15.088 2.136 15.088H1.272V14.064ZM1.24 9.28H5.96V12.592H2.568V14.784H1.272V11.632H4.68V10.304H1.24V9.28ZM6.584 9.28H11.032V15.184H9.72V10.352H6.584V9.28Z" fill="black"/>
</svg>
