<svg width="13" height="16" viewBox="0 0 13 16" fill="none" xmlns="http://www.w3.org/2000/svg">
<path d="M8.072 1.088H9.304V14.528H8.072V1.088ZM8.792 6.672H11.464V7.76H8.792V6.672ZM0.216 10.368H0.792C1.08 10.368 1.448 10.3573 1.896 10.336C2.35467 10.304 2.86133 10.2187 3.416 10.08L3.528 11.2C2.94133 11.3387 2.41333 11.424 1.944 11.456C1.48533 11.4773 1.10133 11.488 0.792 11.488H0.216V10.368ZM0.216 2.592H3.32V3.68H1.448V10.992H0.216V2.592ZM3.944 10.368H4.536C4.93067 10.368 5.368 10.352 5.848 10.32C6.33867 10.288 6.86133 10.192 7.416 10.032L7.544 11.152C6.95733 11.312 6.41333 11.408 5.912 11.44C5.42133 11.472 4.96267 11.488 4.536 11.488H3.944V10.368ZM3.944 2.592H7.128V3.68H5.16V10.96H3.944V2.592ZM11 0.768H12.264V15.248H11V0.768Z" fill="black"/>
</svg>
